<svg id="Ebene_1" data-name="Ebene 1" xmlns="http://www.w3.org/2000/svg" viewBox="0 0 171.25 238.23"><defs><style>.cls-1{fill:#cf4793;}.cls-2{fill:#3bbff0;}.cls-3{fill:#004f83;}.cls-4{fill:#009fe3;}.cls-5{fill:#dbf0fd;}.cls-6{fill:#0069a1;}.cls-7{fill:#fff;}</style></defs><title>Zeichenfläche 6</title><polygon class="cls-1" points="40.55 126.2 8.22 182.22 40.55 238.23 105.23 238.23 137.57 182.22 72.89 182.22 40.55 126.2"/><polygon class="cls-2" points="137.57 70.19 105.23 126.2 137.57 182.22 169.91 126.2 137.57 70.19"/><polygon class="cls-3" points="121.17 70.19 129.36 56.01 97.02 0 64.68 56.01 0 56.01 32.34 112.03 48.74 112.03 72.89 70.19 121.17 70.19"/><polygon class="cls-4" points="121.17 70.19 72.89 70.19 48.74 112.03 40.55 126.2 105.23 126.2 137.57 70.19 121.17 70.19"/><polygon class="cls-5" points="40.55 126.2 72.89 182.22 137.57 182.22 105.23 126.2 40.55 126.2"/><polygon class="cls-6" points="97.02 0 32.34 0 0 56.01 64.68 56.01 97.02 0"/><path class="cls-7" d="M102,111.73c0,1.28-.58,3.08-2.15,3.08a1.81,1.81,0,0,1-1.75-2c0-1.31.89-2.94,2.35-2.94,1.07,0,1.54.93,1.54,1.89m6.83-1c0-4.64-3.8-7.64-8.25-7.64a9,9,0,0,0-9.13,9.11,9.4,9.4,0,0,0,.65,3.4c1.44,3.68,4.66,5.48,8.55,5.48a16.34,16.34,0,0,0,5.41-.84l-.49-2.14a14.08,14.08,0,0,1-4.92.86c-3,0-5.34-1.28-6.36-4.15a7.44,7.44,0,0,1-.47-2.57,6.91,6.91,0,0,1,6.85-7c3.26,0,6,2.15,6,5.55a7.15,7.15,0,0,1-.21,1.73c-.16.68-.79,2.33-1.7,2.33a.55.55,0,0,1-.63-.61,7,7,0,0,1,.16-1.19l.86-5.08h-2.43l-.19,1.09h0a2.34,2.34,0,0,0-2.31-1.37c-2.68,0-4.54,2.72-4.54,5.22,0,2.08,1.35,4.12,3.59,4.12a3,3,0,0,0,2.77-1.68,2.28,2.28,0,0,0,2.29,1.68c2.05,0,3.54-2,4.15-3.75a7.72,7.72,0,0,0,.42-2.52m-17.4-3.57v-3.87H80.25v3.87h3.4v13.38h4.4V107.16Zm-15.82,2.33c0,1.77-1.24,2.47-2.89,2.47H71.16v-4.8h1.61c1.52,0,2.85.63,2.85,2.33m4.61,11-4.68-5.87a5.2,5.2,0,0,0,4.29-5.43,6,6,0,0,0-2.12-4.71c-1.49-1.19-3.5-1.23-5.32-1.23H66.94v17.25h4.22V115h0l4,5.57Zm-18.95-6H58.39l2.84-4.78h0Zm4.4,6V103.29H60.24l-10,17.25h4.49L56.29,118h5v2.49Z"/><path class="cls-3" d="M136.47,112a9.16,9.16,0,0,0,9.28,9.16,9,9,0,0,0,8.9-6.92h-4.71a4.64,4.64,0,0,1-4.24,3c-2.88,0-4.73-2.52-4.73-5.24a4.85,4.85,0,0,1,4.71-5.14,4.56,4.56,0,0,1,4.26,3.07h4.71a7.48,7.48,0,0,0-1.19-2.88,9.27,9.27,0,0,0-17,5m-2.07-8.78h-9.77v17.6h12.1l-2.32-3.95h-5.47v-3h5.31v-3.95h-5.31v-2.74h5.47Zm-12.06,0H107.07l2.41,3.95h4.91v13.66h4.49V107.17h5.77Zm48.92,17.6v-17.6h-4.49v6.61H161v-6.61H156.5v17.6H161v-7h5.76v7Z"/></svg>